# xmcd
#
# Track frame offsets:
#	150
#	23694
#	39216
#	54825
#	67569
#	87921
#	100911
#	117726
#	130362
#	140937
#	153789
#	166764
#	180387
#	194109
#	206208
#
# Disc length: 2930
#
# Revision: 2
# Processed by: cddbd v1.5.1PL0 Copyright (c) Steve Scherf et al.
# Submitted via: audiograbber 1.83.01
# Normalized: r1:DSETVAR1
#
DISCID=c90b700f
DTITLE=Various Artist - La Légende du blues [CD2)
DYEAR=1900
DGENRE=Blues
TTITLE0=Jimmy Witherspoon - Ain't Nobody's Business
TTITLE1=Boo Diddley - I'M a Man
TTITLE2=Mississippi Fred Mc Dowell - Good Morning Little School Girl
TTITLE3=JB Lenoir - Mojo Boogie
TTITLE4=Buddy Guy and Junior Wells - Everyday I Have The Blues
TTITLE5=Lightnin' Hopkins - Jakehead Boogie
TTITLE6=Muddy Waters - Sad Sad Day
TTITLE7=T-Bones Walker - Blues is a Woman
TTITLE8=Clarence Frogman Henry - Ain't Got no Home
TTITLE9=Willie Mae "Big Mama" Thomton - Hound Dog
TTITLE10=Elton Britt - Blues Texas Moonlight
TTITLE11=Jerry Roll Morton - Jerry Roll Blues
TTITLE12=Memphis Minnie - Me And My Chauffeur
TTITLE13=Eddie Boyd - Five long Years
TTITLE14=Pee Wee Crayton - Blues After Hours
EXTD=
EXTT0=
EXTT1=
EXTT2=
EXTT3=
EXTT4=
EXTT5=
EXTT6=
EXTT7=
EXTT8=
EXTT9=
EXTT10=
EXTT11=
EXTT12=
EXTT13=
EXTT14=
PLAYORDER=
